<svg width="20" height="20" viewBox="0 0 300 300" fill="none" xmlns="http://www.w3.org/2000/svg">
<path d="M122.846 208.034C74.3846 221.517 74.3846 185.563 55 181.069M190.692 235V200.214C191.056 195.928 190.431 191.62 188.861 187.575C187.29 183.53 184.808 179.841 181.582 176.754C212.015 173.608 244 162.912 244 113.835C243.998 101.285 238.792 89.2168 229.462 80.1276C233.88 69.1482 233.567 57.0122 228.589 46.2408C228.589 46.2408 217.152 43.0948 190.692 59.5439C168.478 53.9604 145.061 53.9604 122.846 59.5439C96.3862 43.0948 84.9492 46.2408 84.9492 46.2408C79.971 57.0122 79.6586 69.1482 84.0769 80.1276C74.6766 89.2842 69.466 101.462 69.5385 114.104C69.5385 162.822 101.523 173.518 131.957 177.024C128.768 180.08 126.309 183.724 124.739 187.72C123.169 191.715 122.524 195.972 122.846 200.214V235" stroke="#969696" stroke-width="17" stroke-linecap="round" stroke-linejoin="round"/>
</svg>
