<svg width="300" height="300" viewBox="0 0 300 300" fill="none" xmlns="http://www.w3.org/2000/svg">
<path d="M191.54 58.4152C202.416 58.4477 212.837 62.7824 220.527 70.4728C228.218 78.1631 232.552 88.5841 232.585 99.4598V181.54C232.552 192.416 228.218 202.837 220.527 210.527C212.837 218.218 202.416 222.552 191.54 222.585H109.46C98.5841 222.552 88.1631 218.218 80.4728 210.527C72.7824 202.837 68.4477 192.416 68.4152 181.54V99.4598C68.4477 88.5841 72.7824 78.1631 80.4728 70.4728C88.1631 62.7824 98.5841 58.4477 109.46 58.4152H191.54ZM191.54 42H109.46C77.8562 42 52 67.8562 52 99.4598V181.54C52 213.144 77.8562 239 109.46 239H191.54C223.144 239 249 213.144 249 181.54V99.4598C249 67.8562 223.144 42 191.54 42Z" fill="#969696"/>
<path d="M203.959 99.3921C201.516 99.3921 199.128 98.6677 197.097 97.3105C195.066 95.9534 193.483 94.0244 192.548 91.7675C191.613 89.5107 191.369 87.0273 191.845 84.6314C192.322 82.2356 193.498 80.0348 195.225 78.3075C196.953 76.5802 199.153 75.4038 201.549 74.9273C203.945 74.4507 206.429 74.6953 208.685 75.6301C210.942 76.5649 212.871 78.148 214.228 80.1791C215.586 82.2102 216.31 84.5982 216.31 87.041C216.313 88.6639 215.996 90.2716 215.377 91.7717C214.757 93.2717 213.848 94.6347 212.7 95.7823C211.553 96.9299 210.19 97.8395 208.69 98.459C207.19 99.0785 205.582 99.3956 203.959 99.3921ZM150.439 107.623C156.954 107.623 163.322 109.555 168.738 113.174C174.155 116.793 178.377 121.938 180.87 127.956C183.363 133.975 184.015 140.597 182.744 146.987C181.473 153.376 178.336 159.245 173.73 163.851C169.123 168.458 163.254 171.595 156.865 172.866C150.476 174.136 143.853 173.484 137.834 170.991C131.816 168.498 126.672 164.277 123.053 158.86C119.433 153.443 117.502 147.075 117.502 140.561C117.511 131.828 120.984 123.456 127.159 117.281C133.334 111.106 141.706 107.633 150.439 107.623ZM150.439 91.1566C140.668 91.1566 131.116 94.0541 122.992 99.4827C114.867 104.911 108.535 112.627 104.796 121.655C101.056 130.682 100.078 140.616 101.984 150.199C103.89 159.783 108.596 168.586 115.505 175.495C122.414 182.404 131.217 187.109 140.801 189.016C150.384 190.922 160.318 189.944 169.345 186.204C178.373 182.465 186.089 176.133 191.517 168.008C196.946 159.884 199.843 150.332 199.843 140.561C199.843 127.458 194.638 114.892 185.373 105.627C176.108 96.3616 163.542 91.1566 150.439 91.1566Z" fill="#969696"/>
</svg>
