<svg width="300" height="300" viewBox="0 0 300 300" fill="none" xmlns="http://www.w3.org/2000/svg">
<path d="M140.099 150.96C143.943 156.104 148.847 160.36 154.478 163.44C160.11 166.52 166.337 168.351 172.738 168.81C179.139 169.269 185.564 168.344 191.576 166.099C197.589 163.854 203.049 160.341 207.586 155.798L234.437 128.919C242.589 120.47 247.1 109.154 246.998 97.4084C246.896 85.6626 242.19 74.4268 233.892 66.1209C225.595 57.8151 214.37 53.1038 202.636 53.0017C190.902 52.8996 179.598 57.415 171.157 65.5752L155.762 80.896" stroke="#969696" stroke-width="17" stroke-linecap="round" stroke-linejoin="round"/>
<path d="M175.901 133.04C172.057 127.896 167.153 123.64 161.522 120.56C155.89 117.48 149.663 115.649 143.262 115.19C136.861 114.731 130.436 115.655 124.424 117.901C118.411 120.146 112.951 123.659 108.414 128.202L81.5626 155.081C73.4105 163.53 68.8997 174.846 69.0017 186.591C69.1037 198.337 73.8102 209.573 82.1077 217.879C90.4052 226.185 101.63 230.896 113.364 230.998C125.098 231.1 136.402 226.585 144.843 218.425L160.148 203.104" stroke="#969696" stroke-width="17" stroke-linecap="round" stroke-linejoin="round"/>
</svg>
