<svg width="300" height="300" viewBox="0 0 300 300" fill="none" xmlns="http://www.w3.org/2000/svg">
<path d="M188.333 106.667C203.583 106.667 218.209 112.725 228.992 123.508C239.775 134.291 245.833 148.917 245.833 164.167V231.25H207.5V164.167C207.5 159.083 205.481 154.208 201.886 150.614C198.292 147.019 193.417 145 188.333 145C183.25 145 178.375 147.019 174.78 150.614C171.186 154.208 169.167 159.083 169.167 164.167V231.25H130.833V164.167C130.833 148.917 136.891 134.291 147.675 123.508C158.458 112.725 173.083 106.667 188.333 106.667Z" stroke="#969696" stroke-width="17" stroke-linecap="round" stroke-linejoin="round"/>
<path d="M92.5 116.25H54.1667V231.25H92.5V116.25Z" stroke="#969696" stroke-width="17" stroke-linecap="round" stroke-linejoin="round"/>
<path d="M73.3334 87.5001C83.9188 87.5001 92.5 78.9189 92.5 68.3334C92.5 57.748 83.9188 49.1667 73.3334 49.1667C62.7479 49.1667 54.1667 57.748 54.1667 68.3334C54.1667 78.9189 62.7479 87.5001 73.3334 87.5001Z" stroke="#969696" stroke-width="17" stroke-linecap="round" stroke-linejoin="round"/>
</svg>
