<svg width="300" height="300" viewBox="0 0 300 300" fill="none" xmlns="http://www.w3.org/2000/svg">
<path d="M260.185 78.1759C258.943 72.6503 256.414 67.5875 252.853 63.4989C249.292 59.4103 244.826 56.4407 239.904 54.89C221.924 50 150 50 150 50C150 50 78.0765 50 60.0956 55.3558C55.1743 56.9064 50.7076 59.876 47.1467 63.9646C43.5857 68.0532 41.0566 73.116 39.8148 78.6417C36.524 98.9651 34.9144 119.582 35.006 140.233C34.8887 161.039 36.4985 181.813 39.8148 202.29C41.1839 207.644 43.7696 212.514 47.3223 216.43C50.875 220.346 55.2744 223.175 60.0956 224.644C78.0765 230 150 230 150 230C150 230 221.924 230 239.904 224.644C244.826 223.094 249.292 220.124 252.853 216.035C256.414 211.947 258.943 206.884 260.185 201.358C263.451 181.188 265.06 160.728 264.994 140.233C265.111 119.426 263.502 98.6524 260.185 78.1759Z" stroke="#969696" stroke-width="17" stroke-linecap="round" stroke-linejoin="round"/>
<path d="M127 178.571L187 140.559L127 102.547V178.571Z" stroke="#969696" stroke-width="17" stroke-linecap="round" stroke-linejoin="round"/>
</svg>
